name rise44.8762peak52.3436fall86.788.mot
datacolumns 19
datarows 26
range 18.07326300000000 18.11493500000000
endheader
time	ground_force1_vx	ground_force1_vy	ground_force1_vz	ground_force1_px	ground_force1_py	ground_force1_pz	ground_force2_vx	ground_force2_vy	ground_force2_vz	ground_force2_px	ground_force2_py	ground_force2_pz	ground_torque1_x	ground_torque1_y	ground_torque1_z	ground_torque2_x	ground_torque2_y	ground_torque2_z	
18.07326300000000	-8.59500300000000	45.91719000000000	-11.01107700000000	0.27555200000000	0.00000000000000	0.10230300000000	-41.90748900000000	810.30476499999997	-58.27864800000000	0.10508700000000	0.00000000000000	-0.09236700000000	0.00000000000000	-5.77920800000000	0.00000000000000	0.00000000000000	-17.08226600000000	0.00000000000000	
18.07493200000000	-9.29551900000000	52.68044700000000	-12.15666400000000	0.28037000000000	0.00000000000000	0.10309200000000	-42.90359800000000	808.94744300000002	-58.05854600000000	0.10417600000000	0.00000000000000	-0.09227700000000	0.00000000000000	-6.46235700000000	0.00000000000000	0.00000000000000	-17.12558100000000	0.00000000000000	
18.07659800000000	-9.84687600000000	59.42327300000000	-13.17337000000000	0.28478600000000	0.00000000000000	0.10382000000000	-43.91688100000000	807.43069000000003	-57.81064600000000	0.10326900000000	0.00000000000000	-0.09218400000000	0.00000000000000	-7.09078500000000	0.00000000000000	0.00000000000000	-17.17085400000000	0.00000000000000	
18.07826300000000	-10.23544300000000	66.07863000000000	-14.04353900000000	0.28885900000000	0.00000000000000	0.10449500000000	-44.94634800000000	805.75045999999998	-57.53453500000000	0.10236800000000	0.00000000000000	-0.09208800000000	0.00000000000000	-7.65360400000000	0.00000000000000	0.00000000000000	-17.21795700000000	0.00000000000000	
18.07993300000000	-10.45551500000000	72.60335900000000	-14.75808600000000	0.29263400000000	0.00000000000000	0.10512600000000	-45.99090700000000	803.90275199999996	-57.22984200000000	0.10147200000000	0.00000000000000	-0.09198700000000	0.00000000000000	-8.14441700000000	0.00000000000000	0.00000000000000	-17.26674300000000	0.00000000000000	
18.08160000000000	-10.50864600000000	78.97791900000000	-15.31592600000000	0.29615200000000	0.00000000000000	0.10571900000000	-47.04935800000000	801.88361699999996	-56.89623400000000	0.10058200000000	0.00000000000000	-0.09188300000000	0.00000000000000	-8.56113600000000	0.00000000000000	0.00000000000000	-17.31704700000000	0.00000000000000	
18.08325900000000	-10.40250500000000	85.20422100000000	-15.72285300000000	0.29944400000000	0.00000000000000	0.10627800000000	-48.12039800000000	799.68917099999999	-56.53342300000000	0.09969900000000	0.00000000000000	-0.09177400000000	0.00000000000000	-8.90547400000000	0.00000000000000	0.00000000000000	-17.36868300000000	0.00000000000000	
18.08494000000000	-10.14942900000000	91.30208100000000	-15.99004300000000	0.30253500000000	0.00000000000000	0.10680700000000	-49.20261600000000	797.31559700000003	-56.14116900000000	0.09882200000000	0.00000000000000	-0.09166200000000	0.00000000000000	-9.18221200000000	0.00000000000000	0.00000000000000	-17.42144800000000	0.00000000000000	
18.08659400000000	-9.76484900000000	97.30481600000000	-16.13238200000000	0.30544900000000	0.00000000000000	0.10731000000000	-50.29450100000000	794.75916099999995	-55.71927600000000	0.09795300000000	0.00000000000000	-0.09154500000000	0.00000000000000	-9.39834300000000	0.00000000000000	0.00000000000000	-17.47511900000000	0.00000000000000	
18.08826800000000	-9.26574000000000	103.25450400000000	-16.16677900000000	0.30820300000000	0.00000000000000	0.10779000000000	-51.39443800000000	792.01621499999999	-55.26760300000000	0.09709200000000	0.00000000000000	-0.09142400000000	0.00000000000000	-9.56217200000000	0.00000000000000	0.00000000000000	-17.52945200000000	0.00000000000000	
18.08994100000000	-8.66921600000000	109.19735799999999	-16.11060800000000	0.31081300000000	0.00000000000000	0.10825000000000	-52.50071400000000	789.08321200000000	-54.78605800000000	0.09623900000000	0.00000000000000	-0.09129900000000	0.00000000000000	-9.68247200000000	0.00000000000000	0.00000000000000	-17.58418900000000	0.00000000000000	
18.09160800000000	-7.99135700000000	115.17954500000000	-15.98038800000000	0.31329200000000	0.00000000000000	0.10869100000000	-53.61151600000000	785.95671500000003	-54.27460600000000	0.09539400000000	0.00000000000000	-0.09117000000000	0.00000000000000	-9.76774300000000	0.00000000000000	0.00000000000000	-17.63905000000000	0.00000000000000	
18.09326400000000	-7.24632200000000	121.24372099999999	-15.79074300000000	0.31565000000000	0.00000000000000	0.10911500000000	-54.72493900000000	782.63340700000003	-53.73326800000000	0.09455900000000	0.00000000000000	-0.09103600000000	0.00000000000000	-9.82561300000000	0.00000000000000	0.00000000000000	-17.69374000000000	0.00000000000000	
18.09494700000000	-6.44576400000000	127.42641600000000	-15.55370700000000	0.31789800000000	0.00000000000000	0.10952500000000	-55.83898600000000	779.11010399999998	-53.16212300000000	0.09373200000000	0.00000000000000	-0.09089900000000	0.00000000000000	-9.86242300000000	0.00000000000000	0.00000000000000	-17.74794600000000	0.00000000000000	
18.09659800000000	-5.59854500000000	133.75631999999999	-15.27832900000000	0.32004200000000	0.00000000000000	0.10992100000000	-56.95157100000000	775.38376700000003	-52.56131100000000	0.09291600000000	0.00000000000000	-0.09075600000000	0.00000000000000	-9.88296400000000	0.00000000000000	0.00000000000000	-17.80133900000000	0.00000000000000	
18.09826600000000	-4.71071300000000	140.25343500000000	-14.97058600000000	0.32209000000000	0.00000000000000	0.11030400000000	-58.06052700000000	771.45151499999997	-51.93103300000000	0.09210900000000	0.00000000000000	-0.09061000000000	0.00000000000000	-9.89039900000000	0.00000000000000	0.00000000000000	-17.85357600000000	0.00000000000000	
18.09994800000000	-3.78569000000000	146.92900499999999	-14.63353700000000	0.32404800000000	0.00000000000000	0.11067600000000	-59.16360700000000	767.31063800000004	-51.27155300000000	0.09131200000000	0.00000000000000	-0.09045900000000	0.00000000000000	-9.88630300000000	0.00000000000000	0.00000000000000	-17.90429800000000	0.00000000000000	
18.10160100000000	-2.82463900000000	153.78608800000001	-14.26767000000000	0.32591900000000	0.00000000000000	0.11103800000000	-60.25849100000000	762.95861400000001	-50.58319900000000	0.09052600000000	0.00000000000000	-0.09030300000000	0.00000000000000	-9.87083200000000	0.00000000000000	0.00000000000000	-17.95313400000000	0.00000000000000	
18.10326500000000	-1.82692500000000	160.82060000000001	-13.87137900000000	0.32770700000000	0.00000000000000	0.11139000000000	-61.34279100000000	758.39311999999995	-49.86636300000000	0.08975100000000	0.00000000000000	-0.09014300000000	0.00000000000000	-9.84296000000000	0.00000000000000	0.00000000000000	-17.99969900000000	0.00000000000000	
18.10493400000000	-0.79063700000000	168.02268000000001	-13.44150900000000	0.32941700000000	0.00000000000000	0.11173300000000	-62.41405800000000	753.61204999999995	-49.12150300000000	0.08898600000000	0.00000000000000	-0.08997900000000	0.00000000000000	-9.80076800000000	0.00000000000000	0.00000000000000	-18.04359900000000	0.00000000000000	
18.10659800000000	0.28689300000000	175.37819800000000	-12.97392600000000	0.33105100000000	0.00000000000000	0.11206800000000	-63.46978600000000	748.61352999999997	-48.34914100000000	0.08823200000000	0.00000000000000	-0.08981000000000	0.00000000000000	-9.74175000000000	0.00000000000000	0.00000000000000	-18.08442900000000	0.00000000000000	
18.10825800000000	1.40859700000000	182.87028599999999	-12.46405100000000	0.33261100000000	0.00000000000000	0.11239500000000	-64.50742200000001	743.39593400000001	-47.54986600000000	0.08748900000000	0.00000000000000	-0.08963700000000	0.00000000000000	-9.66310700000000	0.00000000000000	0.00000000000000	-18.12177800000000	0.00000000000000	
18.10993400000000	2.57725100000000	190.48076100000000	-11.90733200000000	0.33409900000000	0.00000000000000	0.11271400000000	-65.52436899999999	737.95789400000001	-46.72433200000000	0.08675700000000	0.00000000000000	-0.08946000000000	0.00000000000000	-9.56201400000000	0.00000000000000	0.00000000000000	-18.15522500000000	0.00000000000000	
18.11160000000000	3.79514000000000	198.19136700000001	-11.29964400000000	0.33551500000000	0.00000000000000	0.11302700000000	-66.51799600000000	732.29832199999998	-45.87325800000000	0.08603600000000	0.00000000000000	-0.08927800000000	0.00000000000000	-9.43584600000000	0.00000000000000	0.00000000000000	-18.18434600000000	0.00000000000000	
18.11326300000000	5.06380300000000	205.98477000000000	-10.63757100000000	0.33686200000000	0.00000000000000	0.11333300000000	-67.48564500000001	726.41641600000003	-44.99742500000000	0.08532600000000	0.00000000000000	-0.08909100000000	0.00000000000000	-9.28234600000000	0.00000000000000	0.00000000000000	-18.20871200000000	0.00000000000000	
18.11493500000000	6.38389100000000	213.84529300000000	-9.91860800000000	0.33814100000000	0.00000000000000	0.11363300000000	-68.42463900000000	720.31167600000003	-44.09768100000000	0.08462700000000	0.00000000000000	-0.08890000000000	0.00000000000000	-9.09974400000000	0.00000000000000	0.00000000000000	-18.22789200000000	0.00000000000000	
